<?xml version="1.0" standalone="no"?>
<!DOCTYPE svg PUBLIC "-//W3C//DTD SVG 20010904//EN"
 "http://www.w3.org/TR/2001/REC-SVG-20010904/DTD/svg10.dtd">
<svg version="1.0" xmlns="http://www.w3.org/2000/svg"
 width="670.000000pt" height="670.000000pt" viewBox="0 0 670.000000 670.000000"
 preserveAspectRatio="xMidYMid meet">
<metadata>
Created by potrace 1.11, written by Peter Selinger 2001-2013
</metadata>
<g transform="translate(0.000000,670.000000) scale(0.100000,-0.100000)"
fill="#000000" stroke="none">
<path d="M3278 6255 c-2 -1 -52 -5 -113 -9 -60 -3 -128 -9 -150 -12 -57 -7
-237 -44 -255 -51 -8 -3 -18 -5 -22 -5 -13 3 -243 -76 -330 -114 -85 -36 -289
-141 -298 -154 -3 -3 -24 -17 -47 -30 -24 -13 -43 -28 -43 -34 0 -5 -3 -7 -6
-3 -5 5 -151 -100 -190 -137 -7 -6 -32 -29 -58 -50 -25 -21 -43 -44 -39 -49 3
-6 1 -7 -4 -4 -11 7 -172 -155 -221 -222 -14 -20 -39 -52 -55 -71 -38 -48 -40
-50 -67 -95 -13 -22 -27 -42 -30 -45 -28 -25 -160 -273 -160 -302 0 -6 -3 -8
-7 -5 -3 4 -15 -17 -26 -46 -69 -188 -99 -281 -114 -349 -9 -43 -19 -78 -22
-78 -3 0 -7 -21 -9 -48 -1 -26 -7 -48 -12 -50 -5 -2 -5 -13 0 -27 5 -12 7 -25
4 -28 -11 -11 -14 -61 -13 -207 2 -236 2 -240 11 -240 4 0 8 -15 8 -32 1 -18
7 -60 15 -92 8 -33 12 -63 9 -67 -2 -4 -1 -9 3 -11 9 -3 45 -122 47 -155 0
-11 4 -19 8 -16 7 4 12 -20 9 -39 0 -5 3 -8 8 -8 13 0 32 -60 24 -74 -3 -6 -2
-7 2 -3 10 9 47 -61 39 -74 -3 -5 -1 -9 5 -9 10 0 55 -73 52 -84 0 -3 8 -15
19 -26 12 -12 18 -26 14 -32 -4 -7 -3 -8 5 -4 6 4 14 0 18 -11 10 -28 64 -101
106 -145 9 -10 17 -23 17 -28 0 -5 7 -10 17 -10 9 0 13 -3 10 -7 -4 -3 2 -13
13 -20 11 -8 17 -20 14 -26 -4 -7 -3 -9 1 -4 5 4 19 -3 32 -15 19 -17 21 -24
10 -37 -10 -14 -10 -14 4 -3 13 10 19 10 28 -2 7 -8 8 -16 4 -18 -4 -3 -3 -3
4 -2 7 2 18 -3 25 -10 10 -10 125 -98 173 -134 10 -6 53 -31 100 -56 11 -6 22
-14 25 -17 3 -4 15 -9 28 -13 12 -4 19 -12 16 -18 -4 -7 -2 -8 5 -4 6 4 19 2
28 -6 9 -7 17 -11 17 -9 1 2 22 -5 48 -16 25 -12 56 -24 67 -28 12 -3 19 -10
16 -14 -2 -5 6 -6 19 -4 13 3 27 0 30 -6 4 -6 18 -11 32 -11 13 0 24 -3 24 -8
0 -4 14 -8 31 -8 16 -1 37 -10 45 -20 9 -11 13 -13 9 -6 -9 18 15 15 38 -6 12
-10 17 -11 12 -3 -8 14 -7 14 60 -2 12 -3 48 -8 80 -12 33 -4 74 -9 90 -12 17
-3 41 -5 54 -4 13 0 31 -5 39 -11 9 -7 13 -8 9 -2 -7 13 130 13 151 1 6 -5 12
-4 12 0 0 5 30 10 68 11 37 1 78 5 92 8 14 3 39 8 55 11 42 7 48 9 69 18 10 4
31 8 47 9 16 1 29 5 29 10 0 4 11 6 25 4 15 -3 22 -1 18 5 -4 6 0 8 10 4 9 -3
17 -3 19 1 4 11 169 74 195 76 11 0 19 4 18 7 -6 8 87 53 107 52 9 0 16 5 15
11 -1 6 8 11 20 10 12 0 20 3 17 8 -7 11 57 49 69 41 6 -3 7 -1 3 5 -9 15 28
33 51 26 13 -4 14 -3 5 3 -10 8 -10 12 3 23 12 10 15 10 16 -1 0 -8 4 -4 9 9
5 12 17 22 25 22 9 0 13 5 10 10 -3 5 -1 10 4 10 6 0 57 44 112 98 56 53 106
96 110 95 5 -2 8 0 8 5 -3 18 2 24 14 13 10 -8 14 -7 14 4 0 8 -4 12 -9 9 -13
-9 -9 13 5 25 8 6 18 7 22 3 5 -4 5 -1 0 7 -4 7 -3 16 2 20 19 13 83 110 129
196 26 50 50 92 53 95 3 3 8 14 10 25 1 11 8 29 14 40 6 11 12 26 13 33 1 8 6
21 10 30 4 9 8 22 10 27 1 6 10 37 19 70 9 33 18 71 21 85 2 14 7 41 10 60 9
49 12 78 15 130 1 25 7 51 13 59 8 10 8 13 0 8 -7 -4 -11 22 -13 81 -3 98 -4
109 -27 227 -25 123 -157 425 -186 425 -5 0 -8 5 -8 11 0 17 -75 105 -154 183
-223 216 -523 310 -866 272 -111 -12 -300 -68 -300 -89 0 -5 -4 -6 -9 -2 -13
7 -121 -46 -115 -57 3 -4 -2 -5 -10 -2 -9 3 -16 1 -16 -5 0 -6 -7 -11 -15 -11
-8 0 -24 -9 -35 -20 -11 -11 -23 -20 -26 -20 -10 0 -98 -74 -151 -128 -86 -87
-153 -198 -188 -313 -9 -29 -19 -61 -22 -69 -3 -8 -7 -26 -8 -40 -2 -14 -6
-56 -10 -95 -4 -38 -9 -72 -11 -74 -2 -2 1 -12 7 -22 7 -13 6 -19 -1 -19 -7 0
-8 -6 0 -19 5 -11 10 -31 10 -45 0 -73 64 -239 120 -314 22 -29 37 -58 34 -64
-4 -6 -3 -8 4 -4 6 3 19 -4 29 -16 21 -27 115 -98 155 -118 15 -7 25 -17 22
-21 -3 -5 3 -6 12 -2 11 4 15 3 10 -5 -3 -6 -1 -14 5 -18 8 -4 9 -3 5 4 -5 8
0 12 13 12 11 0 24 -6 28 -12 4 -7 19 -14 33 -16 14 -1 39 -5 55 -8 17 -3 77
-7 135 -8 75 -3 104 -7 102 -16 -1 -6 2 -9 8 -5 6 3 8 11 5 16 -4 5 1 9 9 9
22 0 18 -1 91 20 36 10 65 16 65 12 0 -4 4 -2 8 4 9 15 92 57 92 47 0 -5 4 -3
8 2 4 6 26 26 50 44 57 44 101 89 94 96 -3 3 3 5 13 5 10 0 15 3 12 6 -9 10
12 46 23 39 6 -3 7 1 4 9 -3 9 -1 16 5 16 6 0 8 7 5 15 -4 8 -1 15 5 15 6 0
11 9 11 19 0 11 6 26 13 33 14 15 16 30 22 153 5 102 -9 170 -52 254 -37 72
-125 160 -193 194 -159 79 -371 67 -496 -28 -53 -40 -104 -38 -104 4 0 25 47
74 62 65 7 -4 10 -4 6 1 -10 11 33 47 49 41 7 -3 15 0 19 6 4 7 3 8 -4 4 -7
-4 -12 -2 -12 3 0 6 7 11 15 11 8 0 15 4 15 9 0 6 9 8 20 6 11 -2 18 0 15 6
-10 16 24 22 43 8 15 -12 16 -12 5 2 -11 13 -9 18 13 28 14 6 29 9 34 6 5 -3
10 0 12 5 2 6 24 12 50 13 25 1 44 5 41 10 -2 4 8 7 22 7 18 0 24 -4 19 -12
-4 -7 1 -5 12 4 13 12 24 14 34 8 21 -13 33 -12 24 2 -5 7 -3 8 6 3 7 -4 28
-8 47 -7 22 1 36 -4 40 -14 4 -10 8 -12 12 -5 12 19 231 -57 231 -81 0 -4 5
-8 10 -8 19 0 80 -45 86 -62 3 -10 8 -17 12 -15 14 4 82 -75 75 -86 -3 -7 -3
-9 2 -5 26 24 165 -273 152 -324 -3 -10 -2 -18 2 -18 12 0 16 -191 6 -265 -37
-257 -209 -521 -440 -674 -199 -132 -398 -193 -635 -192 -239 0 -468 74 -655
213 -28 21 -122 104 -138 122 -10 12 -33 37 -51 56 -32 35 -113 151 -156 223
-12 21 -19 44 -16 52 3 8 0 14 -5 12 -6 -1 -17 16 -25 38 -8 22 -18 49 -23 60
-10 20 -20 54 -40 130 -33 123 -49 348 -28 374 9 11 9 13 1 8 -8 -4 -11 2 -10
18 0 14 3 25 6 25 3 0 5 19 6 43 0 42 10 107 20 139 3 9 7 27 9 40 12 62 17
78 25 73 4 -3 6 4 3 15 -3 12 0 20 6 20 7 0 9 5 6 10 -4 6 1 24 9 42 9 17 16
37 16 45 0 8 4 11 10 8 5 -3 8 0 5 7 -7 17 70 164 84 161 6 -2 8 3 5 11 -3 8
0 17 5 21 6 3 8 11 5 17 -5 8 -1 9 12 4 10 -4 15 -4 12 0 -11 11 21 66 34 58
7 -4 8 -3 4 5 -13 20 155 208 174 196 6 -4 10 -3 9 2 -4 21 5 32 54 68 28 22
54 44 55 48 2 4 11 2 20 -5 10 -8 13 -8 9 -1 -12 19 4 45 24 40 11 -3 17 -2
14 3 -3 4 6 15 20 24 29 19 39 20 29 4 -4 -7 -3 -8 5 -4 6 4 9 11 6 16 -5 9
39 41 62 44 8 1 18 8 23 15 4 8 13 10 20 6 8 -5 11 -4 7 2 -8 12 20 26 34 17
5 -3 9 -1 9 4 0 13 50 33 62 26 6 -4 8 -3 5 3 -3 5 10 17 29 27 20 9 33 13 30
8 -3 -5 1 -9 9 -9 8 0 13 3 12 6 -1 3 3 8 8 10 6 2 19 10 30 17 28 20 41 17
21 -5 -13 -14 -14 -21 -5 -27 7 -4 10 -3 6 3 -8 13 27 46 37 36 4 -4 4 0 1 8
-4 12 0 15 17 14 13 -1 28 1 33 5 18 13 114 32 126 24 8 -4 9 -3 5 4 -5 8 2
11 23 8 17 -2 28 1 25 5 -3 5 7 10 23 10 30 2 42 3 118 14 58 9 318 10 355 2
14 -4 35 -8 48 -11 13 -3 22 0 22 6 0 7 7 3 16 -8 8 -10 13 -14 10 -7 -5 9 2
9 24 3 43 -12 45 -14 42 -24 -2 -5 3 -5 10 1 15 12 142 -13 133 -26 -2 -5 7
-6 20 -3 19 3 25 0 25 -14 0 -14 2 -16 9 -6 6 11 26 6 97 -23 48 -20 101 -43
116 -51 15 -8 31 -15 35 -15 11 -2 67 -41 75 -54 4 -5 8 -6 8 -2 0 4 9 3 20
-3 11 -6 18 -15 15 -20 -3 -6 0 -8 7 -5 7 3 25 -5 41 -17 15 -13 52 -41 82
-63 31 -23 53 -46 50 -53 -3 -7 0 -10 6 -6 13 7 61 -35 53 -48 -3 -5 -2 -8 3
-7 21 4 33 -2 33 -18 0 -9 2 -14 5 -11 7 6 75 -60 75 -72 0 -5 3 -10 8 -12 16
-7 101 -115 95 -121 -3 -4 -1 -7 5 -7 7 0 12 -7 12 -16 0 -8 5 -12 10 -9 6 3
10 1 10 -5 0 -6 14 -31 30 -55 17 -24 30 -46 30 -50 0 -3 12 -23 26 -45 15
-22 23 -44 18 -51 -5 -8 -3 -9 6 -4 10 6 12 4 7 -8 -4 -10 -2 -16 6 -14 7 1
11 -8 11 -20 -1 -13 2 -20 6 -18 9 5 80 -172 83 -205 1 -11 4 -20 7 -20 10 0
32 -98 25 -110 -3 -5 -1 -10 6 -10 6 0 9 -8 6 -20 -3 -11 -1 -18 4 -14 5 3 9
-7 9 -23 0 -15 4 -43 9 -60 17 -58 26 -185 25 -343 -1 -178 -5 -230 -17 -230
-4 0 -6 -4 -2 -10 7 -11 -10 -119 -32 -200 -8 -30 -16 -64 -18 -75 -3 -12 -13
-45 -24 -75 -11 -30 -27 -75 -36 -100 -50 -140 -162 -335 -276 -483 -337 -434
-804 -722 -1381 -851 -62 -14 -138 -28 -168 -32 -30 -3 -57 -8 -60 -9 -36 -21
-536 -25 -670 -6 -134 18 -154 22 -168 26 -17 6 -7 -10 34 -55 18 -19 34 -39
35 -45 1 -5 10 -16 21 -23 10 -7 15 -18 12 -24 -4 -6 -3 -8 3 -5 5 4 23 -10
39 -30 16 -20 34 -41 39 -48 6 -6 32 -34 58 -63 28 -30 45 -57 41 -64 -4 -6
-3 -8 3 -5 6 4 16 1 22 -7 7 -8 8 -16 4 -18 -4 -3 -3 -3 4 -2 15 4 55 -50 45
-60 -4 -4 0 -6 8 -4 8 2 14 -3 12 -10 -1 -8 2 -11 7 -8 9 6 68 -64 63 -76 -1
-5 4 -7 11 -5 6 1 11 -4 9 -11 -1 -8 2 -11 7 -8 9 6 47 -43 43 -56 -1 -5 4 -7
11 -5 6 1 11 -4 10 -10 -2 -7 4 -13 12 -13 8 0 15 -3 15 -7 0 -5 31 -42 70
-83 38 -41 72 -83 75 -92 4 -10 11 -18 16 -18 6 0 7 -5 3 -12 -4 -6 -3 -8 4
-4 13 8 74 -68 64 -79 -4 -5 -2 -5 4 -2 12 7 55 -37 58 -59 1 -7 6 -17 11 -21
4 -4 5 -1 1 7 -4 8 6 0 23 -18 18 -18 29 -37 26 -43 -4 -5 -1 -8 7 -7 7 2 12
-3 10 -10 -1 -8 2 -11 6 -8 8 5 57 -47 107 -112 5 -7 20 -23 33 -35 12 -11 20
-27 18 -34 -3 -7 1 -10 10 -6 10 4 17 -2 21 -16 5 -20 6 -20 25 4 11 14 24 22
30 19 7 -5 8 -2 3 5 -5 8 4 24 24 42 18 16 30 29 27 29 -3 0 13 20 36 45 23
24 46 41 51 38 6 -3 7 -1 4 4 -8 13 31 65 43 58 5 -3 12 0 16 6 4 8 3 9 -4 5
-20 -12 -13 1 18 34 16 17 34 29 39 26 5 -3 8 2 7 12 0 9 4 16 11 15 8 -2 10
4 6 14 -5 12 -2 15 10 10 12 -4 14 -2 10 10 -5 12 -2 15 10 10 10 -4 14 -2 11
6 -2 7 9 26 24 44 16 17 54 60 85 96 30 36 58 63 61 60 3 -4 6 -1 6 6 0 7 6
18 13 25 20 21 77 86 140 159 32 37 64 64 69 60 7 -3 8 -1 4 6 -5 7 2 21 16
34 12 12 40 43 62 70 21 26 44 47 52 47 7 0 16 5 20 12 4 7 3 8 -4 4 -19 -12
-14 6 9 30 12 13 28 20 38 17 11 -3 12 -2 4 4 -9 6 -3 20 24 51 30 36 38 40
52 30 14 -11 14 -11 3 3 -10 14 -7 22 20 52 18 20 44 50 58 67 14 16 31 30 38
30 7 0 10 5 6 11 -9 16 18 31 29 16 6 -8 7 -5 3 7 -7 21 19 56 37 52 7 -2 8
-1 4 2 -9 4 65 96 129 160 24 23 40 42 37 42 -4 0 6 13 22 30 15 16 33 27 38
23 6 -3 7 -1 4 4 -8 13 27 55 38 45 5 -4 5 -2 2 5 -4 6 3 20 16 30 13 10 26
26 30 36 4 11 12 15 18 11 7 -4 9 -3 6 3 -4 6 4 22 17 36 13 14 38 46 56 71
18 25 38 43 44 39 6 -3 8 -3 4 2 -10 10 31 67 43 60 5 -4 6 1 3 9 -3 9 -1 16
4 16 6 0 14 9 17 20 4 11 11 18 16 15 5 -4 9 3 9 14 0 11 8 24 18 30 9 5 15
11 13 13 -10 7 32 57 42 51 6 -3 7 -1 3 5 -6 10 55 117 88 155 9 9 16 23 16
31 0 8 8 21 18 28 9 7 17 20 17 28 0 8 5 14 12 13 7 -2 10 3 7 11 -3 7 2 21
11 29 9 9 15 18 15 19 -1 2 3 16 9 31 7 17 15 25 23 21 7 -4 8 -3 4 5 -4 6 3
34 15 61 20 44 24 48 43 39 19 -9 20 -9 3 4 -15 12 -16 19 -6 41 7 14 16 23
22 19 6 -3 7 -1 3 6 -8 12 22 102 37 112 5 3 8 9 8 13 -3 20 0 26 9 21 5 -3 7
0 4 8 -4 12 12 73 33 127 3 8 7 20 8 25 2 6 8 30 16 55 21 74 29 113 31 148 1
12 5 22 8 22 4 0 7 8 7 18 -1 55 4 93 11 89 4 -3 7 20 8 51 1 32 2 112 3 180
2 90 6 120 14 115 9 -5 9 -3 1 8 -6 8 -14 39 -18 69 -15 140 -17 153 -40 255
-37 162 -154 478 -206 555 -6 8 -16 26 -23 40 -37 76 -175 284 -222 336 -5 6
-26 31 -47 55 -66 80 -75 89 -82 81 -4 -4 -6 -2 -4 4 4 16 -160 175 -252 244
-18 14 -38 30 -44 35 -34 33 -229 154 -238 149 -6 -4 -8 -3 -5 3 8 13 -229
130 -368 182 -125 46 -279 89 -380 105 -75 13 -152 24 -165 25 -8 0 -37 3 -65
6 -56 6 -263 14 -267 10z"/>
<path d="M3176 5538 c3 -5 10 -6 15 -3 13 9 11 12 -6 12 -8 0 -12 -4 -9 -9z"/>
<path d="M3085 5520 c-3 -6 1 -7 9 -4 18 7 21 14 7 14 -6 0 -13 -4 -16 -10z"/>
<path d="M2875 5480 c3 -5 8 -10 11 -10 2 0 4 5 4 10 0 6 -5 10 -11 10 -5 0
-7 -4 -4 -10z"/>
<path d="M3870 5456 c0 -2 8 -10 18 -17 15 -13 16 -12 3 4 -13 16 -21 21 -21
13z"/>
<path d="M3969 5423 c-13 -16 -12 -17 4 -4 9 7 17 15 17 17 0 8 -8 3 -21 -13z"/>
<path d="M4116 5358 c3 -5 10 -6 15 -3 13 9 11 12 -6 12 -8 0 -12 -4 -9 -9z"/>
<path d="M2416 5278 c3 -5 10 -6 15 -3 13 9 11 12 -6 12 -8 0 -12 -4 -9 -9z"/>
<path d="M4287 5219 c7 -7 15 -10 18 -7 3 3 -2 9 -12 12 -14 6 -15 5 -6 -5z"/>
<path d="M4530 5046 c0 -2 7 -7 16 -10 8 -3 12 -2 9 4 -6 10 -25 14 -25 6z"/>
<path d="M3275 4580 c-3 -6 1 -7 9 -4 18 7 21 14 7 14 -6 0 -13 -4 -16 -10z"/>
<path d="M3235 4569 c-4 -6 -5 -12 -2 -15 2 -3 7 2 10 11 7 17 1 20 -8 4z"/>
<path d="M2893 4475 c0 -8 4 -12 9 -9 5 3 6 10 3 15 -9 13 -12 11 -12 -6z"/>
<path d="M3516 4462 c-3 -5 1 -9 9 -9 8 0 12 4 9 9 -3 4 -7 8 -9 8 -2 0 -6 -4
-9 -8z"/>
<path d="M3610 4443 c0 -6 8 -17 18 -24 16 -13 16 -13 2 6 -8 11 -16 22 -17
24 -2 2 -3 0 -3 -6z"/>
<path d="M3793 4215 c0 -8 4 -12 9 -9 5 3 6 10 3 15 -9 13 -12 11 -12 -6z"/>
<path d="M2315 3741 c-3 -5 -2 -12 3 -15 5 -3 9 1 9 9 0 17 -3 19 -12 6z"/>
<path d="M3360 3520 c-9 -6 -10 -10 -3 -10 6 0 15 5 18 10 8 12 4 12 -15 0z"/>
<path d="M3235 3440 c-3 -5 -1 -10 4 -10 6 0 11 5 11 10 0 6 -2 10 -4 10 -3 0
-8 -4 -11 -10z"/>
<path d="M3113 3393 c0 -10 4 -10 16 -1 9 7 18 13 20 15 2 1 -5 1 -16 0 -11 0
-20 -7 -20 -14z"/>
<path d="M2770 3379 c0 -5 5 -7 10 -4 6 3 10 8 10 11 0 2 -4 4 -10 4 -5 0 -10
-5 -10 -11z"/>
<path d="M2907 3379 c7 -7 15 -10 18 -7 3 3 -2 9 -12 12 -14 6 -15 5 -6 -5z"/>
<path d="M5595 3300 c-3 -5 -1 -10 4 -10 6 0 11 5 11 10 0 6 -2 10 -4 10 -3 0
-8 -4 -11 -10z"/>
<path d="M3966 2782 l-19 -27 24 22 c12 12 21 24 18 27 -2 2 -13 -8 -23 -22z"/>
<path d="M1576 2673 c-6 -14 -5 -15 5 -6 7 7 10 15 7 18 -3 3 -9 -2 -12 -12z"/>
<path d="M3540 2480 c-8 -5 -10 -10 -5 -10 6 0 17 5 25 10 8 5 11 10 5 10 -5
0 -17 -5 -25 -10z"/>
<path d="M3406 2418 c3 -5 10 -6 15 -3 13 9 11 12 -6 12 -8 0 -12 -4 -9 -9z"/>
<path d="M2190 2346 c0 -2 7 -7 16 -10 8 -3 12 -2 9 4 -6 10 -25 14 -25 6z"/>
<path d="M3190 2320 c0 -5 5 -10 11 -10 5 0 7 5 4 10 -3 6 -8 10 -11 10 -2 0
-4 -4 -4 -10z"/>
<path d="M2315 2311 c-3 -5 -2 -12 3 -15 5 -3 9 1 9 9 0 17 -3 19 -12 6z"/>
<path d="M2536 2293 c-6 -14 -5 -15 5 -6 7 7 10 15 7 18 -3 3 -9 -2 -12 -12z"/>
<path d="M2933 2285 c0 -8 4 -12 9 -9 5 3 6 10 3 15 -9 13 -12 11 -12 -6z"/>
<path d="M2850 2279 c0 -5 5 -7 10 -4 6 3 10 8 10 11 0 2 -4 4 -10 4 -5 0 -10
-5 -10 -11z"/>
<path d="M2895 2280 c3 -5 8 -10 11 -10 2 0 4 5 4 10 0 6 -5 10 -11 10 -5 0
-7 -4 -4 -10z"/>
<path d="M4830 2066 c0 -2 7 -7 16 -10 8 -3 12 -2 9 4 -6 10 -25 14 -25 6z"/>
<path d="M4410 1606 c0 -2 7 -7 16 -10 8 -3 12 -2 9 4 -6 10 -25 14 -25 6z"/>
<path d="M2613 1185 c0 -8 4 -12 9 -9 5 3 6 10 3 15 -9 13 -12 11 -12 -6z"/>
<path d="M2786 982 c-2 -4 4 -8 14 -8 10 0 16 4 14 8 -3 4 -9 8 -14 8 -5 0
-11 -4 -14 -8z"/>
<path d="M2870 899 c0 -5 5 -7 10 -4 6 3 10 8 10 11 0 2 -4 4 -10 4 -5 0 -10
-5 -10 -11z"/>
<path d="M3069 663 c-13 -16 -12 -17 4 -4 16 13 21 21 13 21 -2 0 -10 -8 -17
-17z"/>
<path d="M3227 459 c7 -7 15 -10 18 -7 3 3 -2 9 -12 12 -14 6 -15 5 -6 -5z"/>
</g>
</svg>
