<svg version="1" xmlns="http://www.w3.org/2000/svg" width="1365.333" height="1365.333" viewBox="0 0 1024.000000 1024.000000"><path d="M179.1 99.5c-17.7 3.9-28.6 13.5-32.6 28.6-2.5 9.2-.8 30.3 2.6 34.5.5.6.6 1.4.2 1.7-.3.4-.2.7.3.7s2 1.7 3.3 3.8c2.5 4 9.7 9.1 14 9.9 1.4.2 3 .8 3.6 1.3.6.5 7.2.8 14.7.7 8.9-.1 13.4.1 13 .8-.3.5.1.4 1-.3 2.2-1.8 10.4-2.1 10-.4-.1.8.2 1.1.8.7.6-.3.8-1 .5-1.5-.7-1.2 6.3-1.8 7.6-.5.9.7 1 .6.5-.3-1-1.7 1.9-1.5 3.4.3.7.8 1.8 1.5 2.4 1.5.6 0 .3-.5-.6-1.1-2.5-1.4-2.2-2.4.7-2.5 1.6-.1 2.2.2 1.8 1-.4.7-.1.6.9-.2 1.6-1.3 22.1-1.8 26.8-.6 1.4.3 3.7.8 5.3 1.1 1.5.3 2.7.8 2.7 1.2 0 .4 1 .7 2.3.7 1.2-.1 2.1.4 2 1.1-.2.7.3 1 1 .8 1.7-.7 8.3 3.1 7.9 4.5-.1.6.2.8.8.5 1.4-.9 6.2 3.4 5.3 4.8-.3.6-.1.7.4.4 1.4-.9 3.7 1.9 2.8 3.2-.3.7 0 .8.9.5 1.1-.4 1.6 0 1.6 1 0 .9.4 1.6.8 1.6 1.2 0 6.3 9.6 5.5 10.4-.3.3-.1.6.6.6.8 0 1.1.6.7 1.6-.3.8-.2 1.2.4.9.6-.3 1.1.1 1.1.9.2 1.9.3 2.6 1.2 4.6 1.4 3.4 2.8 10.1 2.2 10.9-.3.5-.1 1.1.4 1.3 1.1.4 2.3 9 2.5 17 .1 3.2.4 5.8.7 5.8.8 0 .4 522.3-.4 526.5-.3 1.6-.8 5-1.2 7.5-1.7 11.4-8.3 30.8-11.6 34.1-1.1 1.1-2 2.2-2 2.6-.3 1.8-2.6 4.2-3.4 3.5-.5-.4-.5-.2-.2.4.6 1-8.4 10.4-9.9 10.4-.3 0-1.8.8-3.2 1.9-6.3 4.4-15.1 6.4-29.2 6.7-7.4.2-15.7-.1-18.5-.7-7.1-1.4-10.6-2-14-2.5-1.6-.2-4.1-.6-5.5-1-1.4-.3-8.4-.8-15.5-1-10.8-.3-13.8-.1-17.7 1.4-6.5 2.4-12.7 7-16.9 12.3-3.1 3.9-4.6 6.7-7.5 14.4-1.3 3.3-1.5 16.7-.3 22.2.6 2.9 1 5.5.9 5.8-.2 1.1 4.5 9 6.8 11.3 1.2 1.3 2.2 2.7 2.2 3.2 0 .6.6 1 1.3 1 .7 0 2.3.9 3.5 2 1.2 1.1 2.8 2 3.7 2 .9 0 1.4.4 1.1.9-.3.5 1 1.2 2.9 1.5 2.2.5 3.3 1.1 2.9 1.8-.4.6-.3.8.4.4 1.1-.7 9.5 1 12.6 2.6 1.2.7 1.6.6 1.1-.1-.3-.6-.1-1.1.4-1.1.6 0 1.1.5 1.1 1 0 .7.6.8 1.6.2 1.8-1 7.6-.3 6.9.8-.3.5-.1 1.2.5 1.5.6.4.9.1.8-.7-.2-1 1.6-1.4 7.2-1.6 13.4-.6 15-.7 15-1.3 0-.5 5.8-1.2 11.8-1.3 1.7-.1 3.2-.4 3.2-.8 0-.3 1.4-.5 3.1-.4 1.6.1 3.2-.1 3.4-.4.2-.4 1.9-.8 3.7-.9 4.4-.3 9.3-.9 9.3-1.1 0-.1 1.5-.3 3.3-.5 1.9-.2 4-.6 4.7-.9.8-.3 1.6 0 1.9.7.3.9.5.8.5-.1.1-.7.4-1.1.9-.9.4.3 4.1-.1 8.2-.8 4.1-.7 10.4-1.6 14-2 3.6-.4 6.7-.9 6.9-1.1.2-.2 1.1.2 1.9.9 1.3.9 1.4.9.8-.1-.5-.8-.1-1.1 1.6-.8 1.3.2 2.9-.2 3.7-.8 1.2-.9 1.3-.8.6.4-.8 1.3-.7 1.3 1 0 2.1-1.7 2.4-1.7 3.6.2.7 1 .9 1 .9 0 0-.6 1-1.2 2.3-1.2 1.3 0 2.9.6 3.6 1.2 1 1.1 1.2 1 .9 0-.2-.9.9-1.5 3.4-1.6 2.1-.2 3.5.1 3.1.7-.3.5.2.5 1.3-.1 1.1-.5 4.5-.9 7.7-.8 3.2.1 6.1-.2 6.3-.6.3-.5 1-.6 1.5-.3 1.8 1.2 4.9 1.4 5.4.4 1-1.5 2.5 0 1.8 1.9-.5 1.4-.3 1.4.9-.2.9-1.2 2-1.6 2.8-1.1.9.5 1.1.4.6-.3-.4-.7-.2-1.2.3-1.2.6 0 1.1.5 1.1 1.1 0 .5.4.8.8.5 1.5-.9 6.2-1.5 6.2-.7 0 .3.9.7 1.9.7 1.1 0 1.7-.4 1.5-.8-.3-.4-.1-.8.5-.8.5 0 1.2.6 1.4 1.2.4.9.6.9.6-.2.1-1 .6-.8 1.7.8.8 1.2 2.1 2.2 2.7 2.2.7 0 .4-.5-.6-1.1-.9-.6-1.5-1.5-1.2-2 .4-.5 1.1-.7 1.7-.3.5.3 6.4.6 12.9.7 6.6 0 12.2.4 12.5.9.3.4 1.1.5 1.7.1 2.1-1.3 4.8-1.1 4.3.3-.3.7-.1 1.6.5 1.9.5.4.9.3.8-.2-.1-.4-.1-1.3 0-1.8.1-1.4 10.4-.6 11.3.9.6.8.8.8.8 0 0-.6 1.5-1.1 3.3-1 2.6.1 3.2.6 3.2 2.3 0 1.2.3 2.4.6 2.8.4.3.6-.5.5-1.7-.1-2.6.5-2.7 10.9-1.4 3.3.4 6.8.7 7.7.7 1 0 2.1.5 2.4 1.1.4.7 1 .5 1.6-.3.7-1 .8-.7.4 1.1-.4 2.2-.4 2.3.8.7 1.3-1.7 6.2-2.5 5.2-.8-.3.5.7.8 2.2.6 1.6-.1 4.9.1 7.3.4 3.4.5 4.3 1 4.1 2.4-.2.9.2 1.7.8 1.7.5 0 .9-.5.8-1.1-.4-1.5 3.9-2.2 4.7-.8.5.7 1.1.6 2.1-.2.9-.7 1.4-.8 1.4-.1 0 .5.9.8 2 .5 1.1-.3 2-.1 2 .4s1.9.9 4.3.9c7.6.1 15 1.3 15.9 2.6.6 1 .8 1 .8 0 0-1.5 2.1-1.1 3.8.8.8.9 1.1.9.7.2-.8-1.6 2.6-1.3 3.7.3.5.7.8.7.8 0 0-1.3 9.1-.6 10.9.9 1.2.9 1.3.8.6-.3-.6-1.1-.3-1.3 1.3-.9 1.2.3 2.3.1 2.6-.6.3-.7.5-.6.5.3.1 1 .4 1.1 1.5.2.7-.6 3.6-1.2 6.3-1.3 2.8-.2 4.9-.6 4.7-.9-.2-.4 1.1-1 2.9-1.3 1.8-.3 4.9-1.5 6.9-2.5 2-1.1 3.9-1.7 4.3-1.3.4.4.5.2.3-.4-.1-.7.1-1.2.5-1.2.5-.1 1.7-1.2 2.8-2.7 1.2-1.4 2.5-2.3 3-1.9.5.3.8.2.7-.3-.1-.4.9-2.6 2.3-4.8 3.4-5.2 5.3-10.7 6.5-18.5 1.4-9.3-1.3-25.5-5.1-30.9-4.1-5.9-10.5-10.8-16.5-12.9-5.8-1.9-8.1-2.1-21-1.7-17.8.5-25.7 1.2-33.5 3.2-8.1 2.1-28.2 2.6-36.5.8-10.3-2.1-13.3-3.3-19.6-7.4-12-7.8-17.3-17.9-19.9-38-2-15.4-2.5-19.5-3-29.4-.2-4.8-.7-9.2-1-9.7-.3-.6 0-1 .7-1 .8 0 .9-.3.3-.8-1.2-.8-1.3-2.2-.2-3.9.4-.6.3-1.4-.2-1.7-.5-.4-1-3.7-1-7.4s0-6.9-.1-7.2c-.1-.3-.3-3.3-.4-6.7-.2-4.4 0-6 .8-5.6.7.5.7.2-.1-.8-.6-.8-1.1-4-1.2-7.2 0-3.2-.3-6.2-.6-6.7s-.1-1.1.5-1.5c.6-.3.7-1.4.2-2.3-.9-1.9-.9-4.2-.1-5.7.5-.9.5-3.1 0-3.8-.1-.1-.4-2.1-.6-4.4-.2-2.8.1-4.3.8-4.3.9 0 .9-.2.1-.8-1.3-.8-1.3-7.1-.1-9 .5-.7.4-1.2-.3-1.2s-1-14.1-.9-46.8c.2-40.3.4-47.4 1.9-52 .9-2.9 2-4.9 2.5-4.5.4.4.5.3.2-.4-1-1.7.4-4.5 1.9-3.9.8.3 1.3 0 1.1-.7-.1-.7.6-1.1 1.5-1.1 1 .1 1.5-.2 1.2-.7-.8-1.3 1-1.1 2.3.2.8.8 1.1.6 1-.6-.1-1 .4-2 1.2-2.3 1-.3 1.1 0 .5.9-.6 1.1-.5 1.2.7.3 2.4-1.9 6.9-2.6 6.9-1.2 0 1 .2 1 .8.1.6-1 19.6-1.2 83.5-1.2 45.4 0 83.1-.2 83.7-.6.5-.3 1 0 1 .7 0 .8.3.9.8.3.4-.6 1.4-1 2.2-1 .8 0 1.8.4 2.2 1 .5.6.8.5.8-.3 0-.9 1.1-1.2 3.3-1 1.7.2 3.2.8 3.2 1.5 0 .6.3 1.5.7 1.9.4.3.6-.3.3-1.5-.3-1.4.1-2.1 1.3-2.2.9 0 2.7-.2 4-.3 1.2-.2 2.2.2 2.2.8 0 .7.3.7.8.1.9-1.2.6-1.2 11.7-2.1 12.3-.9 15-1.2 15-1.4 0-.8 7.3-.5 8.3.3.9.7 1.2.7 1-.3-.2-.7.3-1.5 1.1-1.8 1-.3 1.1 0 .5.9-.6 1.1-.5 1.2.7.3 1.5-1.2 4.3-1.9 11.9-3 2.5-.3 4.7-.8 4.9-1 .2-.2 1.1.2 1.9.9 1.3.9 1.4.9.8-.1-.4-.6-.4-1.2.1-1.3.4 0 1.8-.2 3.1-.5 1.2-.2 3.1-.5 4.2-.7 1.1-.2 2.3-.6 2.6-1 .4-.4 1.4-.1 2.2.6.9.6 1.3.7.9.1-.9-1.6 7.8-3.5 9.4-2 .9.8 1 .8.5-.1-.8-1.4 2.1-2.4 5.1-1.9 1.4.3 2.2 0 2-.7-.1-.7.8-1.2 2.1-1.1 1.2 0 2.2-.3 2.2-.7 0-.6 5.9-2.1 7.5-1.9.3 0 1.9-.7 3.5-1.5s3.1-1.5 3.2-1.4c.2 0 1.6-.4 3.1-1 1.6-.6 3.3-.9 3.8-.5.5.3.9 0 .9-.6 0-.7.7-.9 1.6-.6 1 .4 1.3.2.8-.6s-.2-.9.9-.5c1 .3 1.7.2 1.7-.3 0-.6.3-.9.8-.8.4.1 3.8-1.3 7.5-3 3.8-1.8 7-3.2 7.2-3.2.2 0 .1 1.2-.1 2.7-.3 1.5-.2 2.5.1 2.1.6-.5 1.1-2.4 1.4-4.9.2-1.1 7.3-3.9 8.3-3.3.7.4.8.2.4-.5-.8-1.2 5.2-4.3 6.6-3.5.5.3.8-.2.8-1.1 0-1.1.7-1.4 2.4-1.1 1.8.3 2.3.1 2-.9-.3-.8.4-1.6 1.7-2 1.2-.4 2.7-1.1 3.3-1.6 3.5-2.9 13.5-8.6 14.2-8.1.4.4.4.2 0-.5-.7-1.3 2.9-3.7 4.4-2.8.5.3 1.2 0 1.6-.6.4-.8.3-.9-.4-.5s-1.2.3-1.2-.2 1.9-2.2 4.3-3.9c2.3-1.7 5.2-4 6.5-5.1 1.3-1.2 2.9-2 3.5-1.8.7.1.9.1.5-.1-1.4-.8-.8-2.5.6-2 1 .4 1.3.1.9-.9-.6-1.6.7-1.9 2.5-.4.9.7.9.7.2-.2-.6-.8.7-2.8 4.4-6.5 3-2.9 5.2-5.3 5-5.3-.3 0 .1-.6.8-1.4.7-.8 1.6-1.2 1.9-1 .4.2 1-.8 1.3-2.1.4-1.4 1-2.3 1.5-2.1.5.3 1.1-.4 1.5-1.7.5-1.9.8-2 1.7-.7.9 1.3 1 1.3.6-.2-.4-1 .8-3.5 2.7-6 4.3-5.8 12.6-19.2 15.4-25.1 1.3-2.6 2.7-4.5 3.2-4.2.6.3.7 0 .4-.8-.3-.8.6-3.8 2-6.8 1.4-2.9 2.6-5.9 2.6-6.6 0-.7.4-1.3 1-1.3.5 0 .6-.7.3-1.7-.4-1-.2-1.4.4-1 .7.5.9 0 .6-1.3-.3-1.2 0-2 .7-2s1-.7.6-1.6c-.5-1.2-.2-1.5 1.1-1s1.5.4.7-.4-.5-3.4 1.3-9.8c1.4-4.8 2.7-9.6 2.9-10.7 2.5-12.4 3.6-19 4.1-24.5.3-3.6 1.1-6.8 1.7-7.2.8-.5.7-.8-.2-.8-.7 0-1.1-.4-.8-.9.3-.5.8-4.5 1-8.9.2-4.4.6-8.5 1-9 .3-.6.2-1.3-.4-1.7-.6-.4-.8-1.1-.4-1.6 1-1.6.2-28.8-1-34.9-.2-1.4-.7-5.4-1.1-9-.3-3.6-.8-7.2-1-8-.4-1.6-1.1-5.2-2.1-11-.3-1.9-.8-3.9-1.1-4.3-.3-.5-.7-2.2-1-4-.7-4.4-8.2-26.7-9.9-29.5-.8-1.2-1.2-2.2-1-2.2.3 0-1.6-4.2-4.2-9.3-2.6-5-4.6-9.8-4.5-10.5 0-.7-.1-1.1-.4-.8-.3.3-2.9-3.3-5.8-7.9-2.9-4.6-7.9-11.8-11.1-16.1-6.1-8.1-26.4-29.2-32.2-33.5-1.8-1.3-4.8-3.6-6.5-5.1-1.8-1.5-4-3-4.9-3.4-1-.3-1.8-1-1.8-1.5s-.4-.9-1-.9c-.5 0-4-2-7.7-4.4-3.7-2.4-7.8-4.6-9-5-1.1-.4-2.7-1.3-3.3-2.1-.7-.8-1.9-1.5-2.8-1.5-.8 0-2.3-.6-3.1-1.3-2.1-1.8-20.7-9-32.3-12.6-13.8-4.2-37.3-9.3-53.3-11.5-15.1-2.1-18.8-2.6-25.5-3.1-4.1-.3-8.8-.8-10.5-1-10.5-1.3-30.9-2-64.5-2-33 0-70.5 1-75.9 2-.9.1-7.2.6-14.1.9-6.9.4-14.1.9-16 1.1-1.9.2-7.3.6-12 1-4.7.3-10.7.8-13.5 1.1-2.7.2-7.9.6-11.5.9-3.6.2-9.6.7-13.5 1-3.8.3-9.2.8-12 1-22.9 1.9-34.8 2.4-59.5 2.4-21 .1-39.9-.4-51-1.4-3-.3-8.4-.8-12-1.1-3.6-.3-7.6-.7-9-.9-1.4-.3-5.6-.7-9.5-1.1-3.8-.4-7.3-.8-7.7-1-.3-.2-3.3-.7-6.5-1-3.2-.3-8.7-.9-12.3-1.4-3.6-.5-9.2-1.2-12.5-1.6-3.3-.3-7.3-.8-9-1.1-7.6-1.3-35.2-1.1-41.4.2zm377.3 77.9c2.1-.8 22.6-1 22.6-.2 0 .5-.5.8-1.2.8-.6 0-.8.3-.4.7.4.5 1.3.1 1.9-.7 1.2-1.6 11.7-2.2 11.7-.8 0 .5-.5.8-1.2.8-.6 0-.8.3-.5.6.4.4 1.3.1 2.1-.5 1.4-1.2 19.6-1.3 19.6-.1 0 .3 2.2.5 5 .4 2.8 0 5 .4 5 1s.4.6 1.1-.1c.6-.6 1.9-.8 3-.6 1.6.5 1.7.8.7 2.2-1.2 1.5-1.1 1.5.7 0 2.5-2 8.3-1.5 10.1.8 1.3 1.7 1.4 1.7.7-.2-.6-1.7-.4-1.8.9-.8.8.7 1.7 1.1 2 .8.4-.4 9 1 16.3 2.8 1.1.2 3.9.8 6.3 1.2 2.3.4 4.2 1 4.2 1.5 0 .4.9.6 2 .3s2 0 2 .6.3 1 .8.9c1.6-.5 8.2 1.4 7.7 2.2-.3.4.4.6 1.5.3s2.1 0 2.1.6c.1.6.2 1.5.3 2.1 0 .5.7 1.5 1.5 2.2 1.2 1.1 1.2 1 .5-.2-1.5-2.6-1.3-3.8.7-3.3 1 .3 1.7.8 1.5 1.2-.2.3.7.7 2.1.8 1.4 0 2.9.6 3.3 1.3.4.6 1.1 1.1 1.6 1.1s2.4.5 4.2 1.1c2.3.9 3.1 1.7 2.7 2.8-.5 1.2-.4 1.2.6.3 1.7-1.7 9.3 2.2 8.5 4.4-.5 1.3-.4 1.4.9.3 1.1-.9 1.5-.9 1.5-.1 0 .7.5.9 1 .6.6-.3 1-.1 1 .5s.5.8 1 .5c.6-.3 1-.3 1 .2 0 .4 1.8 1.9 4 3.3 2.2 1.3 4 2.8 4 3.2 0 .4.7.8 1.5.8s2 .9 2.7 2c.7 1.1 1.7 2 2.2 2 .5 0 3.5 2.6 6.7 5.8 4.1 4.2 5.5 6.2 4.7 7-.7.7-.5 1 .8.9 1-.1 2.3.8 2.9 2 .7 1.3 1.4 2.1 1.6 1.8.8-.8 9 12.5 8.4 13.6-.4.5-.1.8.7.7.7-.2 1.2.3 1 .9-.1.7.3 1.3.9 1.3.5 0 .8.4.5.9-.4.5-.2 1.1.3 1.3.5.1 1.1 1 1.3 1.8.2.8.5 1.7.8 2 1.5 1.4 5.1 12.1 4.4 13.1-.4.7-.3.9.4.5 1.2-.7 4.3 8.7 4.5 14 .1 1.8.5 3 .8 2.8.4-.2 1 1.8 1.4 4.4.3 2.6.8 5.6 1.1 6.7.2 1.1.6 4.9.8 8.5.3 3.6.6 6.5.7 6.5 0 0 .2 1.5.3 3.2.1 1.8-.3 3.3-.9 3.3-.5 0-.5.4.2.8 1.6 1 1.2 5.4-.7 7-1.3 1.1-1.3 1.1.2.6 1.3-.4 1.7 0 1.5 1.8 0 1.2-.6 2.6-1.2 3-.7.5-.7.8.1.8.7 0 1 2.1.9 5.7-.3 9.4-1.6 20.8-2.4 21.1-.4.1-.5 1.7-.3 3.4.3 2.1.1 2.9-.7 2.4-.7-.5-.9-.1-.5.8.7 1.9-1.4 11.5-3 13.5-.8 1.1-.8 1.3.1.8 1-.6-.3 3.7-3.6 11.8-2.3 5.9-11.4 23.4-12.9 25.1-1 1.1-2.7 3.3-3.8 4.9-2.1 3.3-7.7 9.8-11.2 12.9-1.2 1.1-3.9 3.5-5.8 5.3-8.8 8-31.8 21-41.9 23.7-.5.2-2.3.8-4 1.5-3.9 1.6-28.8 7.8-34.5 8.6-2.4.4-4.7.8-5 1-.3.1-2.5.6-5 .9-2.5.3-5.4.8-6.6 1-2.1.4-5.3.8-20.4 2.5-13.2 1.5-19.6 2.1-43.5 3.7-15.4 1.1-119.1 1.2-124.2.2-2.6-.5-5.9-1.1-7.2-1.4-16.4-3.3-30.9-15.2-31.4-25.7-.1-1.9-.5-3.3-.9-3.1-.9.6-1.5-41.9-.8-64.4.3-9.6.3-17.5.1-17.8-.6-.5-.1-30.6.5-31.5.3-.5.2-.9-.3-.9-.4 0-.7-3-.6-6.7.3-12 .4-23.8.3-24.8-.1-.6-.1-4.2-.1-8 0-3.9.1-16.9.1-28.9 0-15.9.4-22.3 1.3-23.4.9-1.3.9-1.4 0-.8-.7.4-1.3.3-1.3-.1 0-.5.6-1.5 1.3-2.2.8-1 .8-1.2 0-.7-.9.5-1.1-.4-.7-3.2.5-4.5 1.4-15.4 1.6-19.5.1-1.5.5-2.7.8-2.7.4 0 .5-1.1.3-2.4-.3-1.3 0-2.7.6-3 .5-.4.7-1.4.4-2.3-.4-1-.2-1.4.4-1 .6.4.9-.3.7-1.8-.1-1.4.2-2.5.7-2.5.5 0 .8-.3.8-.8-.4-2.1.4-3.5 3.7-7.2 2-2.2 4-3.7 4.5-3.4.5.3.9.1.9-.4 0-1.1 8.8-5.6 11-5.6.8 0 1.4.7 1.4 1.7-.1.9.2 1.4.8 1.1.5-.3.6-1.5.2-2.6-.5-1.7-.3-2 1-1.5.9.4 1.6.3 1.6-.2s1.7-1.2 3.8-1.7c4.2-.9 5-1 5.7-1.4.9-.4 12.2-2.2 14-2.1.2 0 1.9-.4 3.6-.9 1.7-.5 5.9-1.2 9.3-1.5 5.4-.5 12.2-1.3 15.1-1.8.5-.1.9.3 1 1 0 .6.4 1.5.9 2 .5.4.6.3.3-.3-1.1-2 1.6-3.1 7.1-3 2.8.1 5.2-.3 5.3-.9 0-.5.4-.1.9 1 .6 1.4.9 1.5.9.5.1-1.2 1.6-1.6 6.8-1.8 3.6-.2 7-.5 7.5-.8.5-.3 1.6.2 2.4 1.2 1 1.3 1.3 1.5 1.2.4-.2-1 .7-1.4 3.2-1.4 2.3 0 3.4.4 3.2 1.3-.1.7.2 1 .8.6.6-.3.8-1.1.5-1.6-.4-.5-.1-.9.4-.9.6 0 1.1.6 1.1 1.2 0 1 .2 1 .8.2.4-.7 4.2-1.2 9.6-1.3 4.9-.1 9.2-.4 9.5-.7.3-.3.7-.1.9.5.2.5.9.8 1.6.5z"/><path d="M597.5 180c.2 2.7 1 3.3 1.2 1 .1-1.1-.2-2.2-.6-2.4-.4-.3-.7.4-.6 1.4zM615.3 180.5c0 .8.4 1.2.9.9.5-.3.6-1 .3-1.5-.9-1.3-1.2-1.1-1.2.6zM585.5 180.9c-.3.5-.2 1.2.3 1.5.5.3.9-.1.9-.9 0-1.7-.3-1.9-1.2-.6zM485.6 181.9c-.3.4.6.7 1.9.7 1.4 0 2.2-.2 1.9-.5-.8-.8-3.4-1-3.8-.2zM557.5 182c.3.5.8 1 1.1 1 .2 0 .4-.5.4-1 0-.6-.5-1-1.1-1-.5 0-.7.4-.4 1zM561 182.1c0 .5.5.7 1 .4.6-.3 1-.8 1-1.1 0-.2-.4-.4-1-.4-.5 0-1 .5-1 1.1zM565.5 182c.3.5.8 1 1.1 1 .2 0 .4-.5.4-1 0-.6-.5-1-1.1-1-.5 0-.7.4-.4 1zM573 182.1c0 .5.5.7 1 .4.6-.3 1-.8 1-1.1 0-.2-.4-.4-1-.4-.5 0-1 .5-1 1.1zM609.5 182c.3.5.8 1 1.1 1 .2 0 .4-.5.4-1 0-.6-.5-1-1.1-1-.5 0-.7.4-.4 1zM467.7 184.9c-1 1.2-.9 1.3.3.6.8-.5 2.1-1 2.8-1.1 2.4-.4 2.5-1.3.3-1.1-1.2.1-2.8.8-3.4 1.6zM590.6 184.2c.3.5 1 .6 1.5.3 1.3-.9 1.1-1.2-.6-1.2-.8 0-1.2.4-.9.9zM628.5 184c-.3.6.1.7.9.4 1.8-.7 2.1-1.4.7-1.4-.6 0-1.3.4-1.6 1zM485.5 184.9c-.3.5-.2 1.2.3 1.5.5.3.9-.1.9-.9 0-1.7-.3-1.9-1.2-.6zM458 186c-.9.6-1 1-.3 1 .6 0 1.5-.5 1.8-1 .8-1.2.4-1.2-1.5 0zM474.9 187.7c-1.3 1.6-1.2 1.7.4.4 1.6-1.3 2.1-2.1 1.3-2.1-.2 0-1 .8-1.7 1.7zM647.6 187.8c-.3.5.1.9.9.9s1.2-.4.9-.9c-.3-.4-.7-.8-.9-.8-.2 0-.6.4-.9.8zM651.3 188.5c0 .8.4 1.2.9.9.5-.3.6-1 .3-1.5-.9-1.3-1.2-1.1-1.2.6zM663 187.4c0 .2.7.7 1.6 1 .8.3 1.2.2.9-.4-.6-1-2.5-1.4-2.5-.6zM443 190c0 .5.5 1 1.1 1 .5 0 .7-.5.4-1-.3-.6-.8-1-1.1-1-.2 0-.4.4-.4 1zM657.5 190c.3.5.8 1 1.1 1 .2 0 .4-.5.4-1 0-.6-.5-1-1.1-1-.5 0-.7.4-.4 1zM438.6 192.2c.3.5 1 .6 1.5.3 1.3-.9 1.1-1.2-.6-1.2-.8 0-1.2.4-.9.9zM673.5 194c.3.5.8 1 1.1 1 .2 0 .4-.5.4-1 0-.6-.5-1-1.1-1-.5 0-.7.4-.4 1zM679.5 194c.3.5.8 1 1.1 1 .2 0 .4-.5.4-1 0-.6-.5-1-1.1-1-.5 0-.7.4-.4 1zM689.6 200.2c.3.5 1 .6 1.5.3 1.3-.9 1.1-1.2-.6-1.2-.8 0-1.2.4-.9.9zM702.6 204.2c.3.5 1 .6 1.5.3 1.3-.9 1.1-1.2-.6-1.2-.8 0-1.2.4-.9.9zM706 203.4c0 .2.8 1 1.8 1.7 1.5 1.3 1.6 1.2.3-.4s-2.1-2.1-2.1-1.3zM713.6 209.8c-.3.5.1.9.9.9s1.2-.4.9-.9c-.3-.4-.7-.8-.9-.8-.2 0-.6.4-.9.8zM747.3 242.5c0 .8.4 1.2.9.9.5-.3.6-1 .3-1.5-.9-1.3-1.2-1.1-1.2.6zM755.5 255.9c-.3.5-.2 1.2.3 1.5.5.3.9-.1.9-.9 0-1.7-.3-1.9-1.2-.6zM231.3 179.5c0 .8.4 1.2.9.9.5-.3.6-1 .3-1.5-.9-1.3-1.2-1.1-1.2.6zM251 178.3c0 .2.6 1 1.4 1.6 1.1.9 1.6.9 2.2-.1.4-.7.4-1-.1-.6-.4.4-1.4.3-2.2-.3-.7-.6-1.3-.9-1.3-.6zM241.3 181.5c0 .8.4 1.2.9.9.5-.3.6-1 .3-1.5-.9-1.3-1.2-1.1-1.2.6zM245.3 181.5c0 .8.4 1.2.9.9.5-.3.6-1 .3-1.5-.9-1.3-1.2-1.1-1.2.6zM173.6 183.3c.3 1 .9 1.5 1.2 1.2.3-.3 0-1.1-.7-1.8-1-.9-1.1-.8-.5.6zM195.3 183.4c0 1.5 2.2 1.5 3.4 0 .4-.5.4-.6-.1-.2-.5.4-1.4.3-2.1-.2-.8-.7-1.2-.5-1.2.4zM227.3 183.5c0 .8.4 1.2.9.9.5-.3.6-1 .3-1.5-.9-1.3-1.2-1.1-1.2.6zM222.5 184c-.3.6.1.7.9.4 1.8-.7 2.1-1.4.7-1.4-.6 0-1.3.4-1.6 1zM177 186.1c0 .5.5.7 1 .4.6-.3 1-.8 1-1.1 0-.2-.4-.4-1-.4-.5 0-1 .5-1 1.1zM203.6 186.2c.3.4 1.1.5 1.9.1 2.1-.7 1.9-1.2-.4-1-1.1 0-1.8.5-1.5.9zM210.6 185.8c-.3.5.1.9.9.9s1.2-.4.9-.9c-.3-.4-.7-.8-.9-.8-.2 0-.6.4-.9.8zM170.4 188.2l-1.9 2.3 2.3-1.9c2.1-1.8 2.7-2.6 1.9-2.6-.2 0-1.2 1-2.3 2.2zM282.6 199.8c-.3.5.1.9.9.9s1.2-.4.9-.9c-.3-.4-.7-.8-.9-.8-.2 0-.6.4-.9.8zM875 395.4c0 .2.7.7 1.6 1 .8.3 1.2.2.9-.4-.6-1-2.5-1.4-2.5-.6zM850.6 451.8c-.3.5.1.9.9.9s1.2-.4.9-.9c-.3-.4-.7-.8-.9-.8-.2 0-.6.4-.9.8zM849.3 455.5c0 .8.4 1.2.9.9.5-.3.6-1 .3-1.5-.9-1.3-1.2-1.1-1.2.6zM841.6 467.8c-.3.5.1.9.9.9s1.2-.4.9-.9c-.3-.4-.7-.8-.9-.8-.2 0-.6.4-.9.8zM831.6 479.8c-.3.5.1.9.9.9s1.2-.4.9-.9c-.3-.4-.7-.8-.9-.8-.2 0-.6.4-.9.8zM807.4 501.8c.4.3 1.4.7 2.2.8.9.1 1.3 0 1-.4-.4-.3-1.4-.7-2.2-.8-.9-.1-1.3 0-1 .4zM804.6 506.2c.3.5 1 .6 1.5.3 1.3-.9 1.1-1.2-.6-1.2-.8 0-1.2.4-.9.9zM793 514.1c0 .5.5.7 1 .4.6-.3 1-.8 1-1.1 0-.2-.4-.4-1-.4-.5 0-1 .5-1 1.1zM787.5 522.9c-.3.5-.2 1.2.3 1.5.5.3.9-.1.9-.9 0-1.7-.3-1.9-1.2-.6zM775.3 525.5c0 .8.4 1.2.9.9.5-.3.6-1 .3-1.5-.9-1.3-1.2-1.1-1.2.6zM767.4 527.1c-.3.6-.2 1.5.3 2s.9.1.9-1.1c0-2.3-.2-2.4-1.2-.9zM764 532c-.9.6-1 1-.3 1 .6 0 1.5-.5 1.8-1 .8-1.2.4-1.2-1.5 0zM751 536.1c0 .5.5.7 1 .4.6-.3 1-.8 1-1.1 0-.2-.4-.4-1-.4-.5 0-1 .5-1 1.1zM745.6 537.8c-.3.5.1.9.9.9s1.2-.4.9-.9c-.3-.4-.7-.8-.9-.8-.2 0-.6.4-.9.8zM751.5 538.9c-.3.5-.2 1.2.3 1.5.5.3.9-.1.9-.9 0-1.7-.3-1.9-1.2-.6zM743.4 541.8c.4.3 1.4.7 2.2.8.9.1 1.3 0 1-.4-.4-.3-1.4-.7-2.2-.8-.9-.1-1.3 0-1 .4zM723.5 546.9c-.3.5-.2 1.2.3 1.5.5.3.9-.1.9-.9 0-1.7-.3-1.9-1.2-.6zM709.5 554c-.3.5-.1 1 .4 1 .6 0 1.1-.5 1.1-1 0-.6-.2-1-.4-1-.3 0-.8.4-1.1 1zM715.5 553.9c-.3.5-.2 1.2.3 1.5.5.3.9-.1.9-.9 0-1.7-.3-1.9-1.2-.6zM692 558c-.8.5-1 1-.5 1 .6 0 1.7-.5 2.5-1s1.1-1 .5-1c-.5 0-1.7.5-2.5 1zM665 559.8c0 .4 1 .9 2.2.9 1.8.2 2 0 .8-.7-1.8-1.2-3-1.3-3-.2zM681 560.4c.7.7 1.3.7 2 0 .6-.6.3-1-1-1s-1.6.4-1 1zM673 562.1c0 .5.5.7 1 .4.6-.3 1-.8 1-1.1 0-.2-.4-.4-1-.4-.5 0-1 .5-1 1.1zM649.9 562.2c-.5.9-.5 4.8-.1 4.3.6-.6 1.1-4.5.5-4.5-.2 0-.4.1-.4.2zM632.4 564.2c-.4.7-.3.8.5.4.6-.4 2-.2 2.9.6 1.5 1.2 1.6 1.1.3-.5-1.6-2-2.7-2.2-3.7-.5zM665.4 563.8c.4.3 1.4.7 2.2.8.9.1 1.3 0 1-.4-.4-.3-1.4-.7-2.2-.8-.9-.1-1.3 0-1 .4zM627.3 565.5c0 .8.4 1.2.9.9.5-.3.6-1 .3-1.5-.9-1.3-1.2-1.1-1.2.6zM641.5 564.9c-.3.5-.2 1.2.3 1.5.5.3.9-.1.9-.9 0-1.7-.3-1.9-1.2-.6zM653.5 564.9c-.3.5-.2 1.2.3 1.5.5.3.9-.1.9-.9 0-1.7-.3-1.9-1.2-.6zM453.3 567.5c0 .8.4 1.2.9.9.5-.3.6-1 .3-1.5-.9-1.3-1.2-1.1-1.2.6zM485.3 567.5c0 .8.4 1.2.9.9.5-.3.6-1 .3-1.5-.9-1.3-1.2-1.1-1.2.6zM495.4 567.1c-.3.6-.2 1.5.3 2s.9.1.9-1.1c0-2.3-.2-2.4-1.2-.9zM501.3 567.5c0 .8.4 1.2.9.9.5-.3.6-1 .3-1.5-.9-1.3-1.2-1.1-1.2.6zM585.9 566.2c-.6 2-.6 3.9 0 4.2.4.3.7-.6.7-2 0-2-.4-3.2-.7-2.2zM443.6 568.2c.3.5 1 .6 1.5.3 1.3-.9 1.1-1.2-.6-1.2-.8 0-1.2.4-.9.9zM458.6 567.8c-.2.4.4.8 1.4.8 1 0 1.6-.4 1.4-.8-.3-.4-.9-.8-1.4-.8-.5 0-1.1.4-1.4.8zM487.9 568.7c-1.3 1.6-1.2 1.7.4.4 1.6-1.3 2.1-2.1 1.3-2.1-.2 0-1 .8-1.7 1.7zM492 568c-.9.6-1 1-.3 1 .6 0 1.5-.5 1.8-1 .8-1.2.4-1.2-1.5 0zM506.6 567.8c-.2.4.4.8 1.4.8 1 0 1.6-.4 1.4-.8-.3-.4-.9-.8-1.4-.8-.5 0-1.1.4-1.4.8zM576 568c-.9.6-1 1-.3 1 .6 0 1.5-.5 1.8-1 .8-1.2.4-1.2-1.5 0zM580 568c-.9.6-1 1-.3 1 .6 0 1.5-.5 1.8-1 .8-1.2.4-1.2-1.5 0zM601.6 568.2c.3.5 1 .6 1.5.3 1.3-.9 1.1-1.2-.6-1.2-.8 0-1.2.4-.9.9zM473.5 570c.3.5.8 1 1.1 1 .2 0 .4-.5.4-1 0-.6-.5-1-1.1-1-.5 0-.7.4-.4 1zM477 570.1c0 .5.5.7 1 .4.6-.3 1-.8 1-1.1 0-.2-.4-.4-1-.4-.5 0-1 .5-1 1.1zM513 570.1c0 .5.5.7 1 .4.6-.3 1-.8 1-1.1 0-.2-.4-.4-1-.4-.5 0-1 .5-1 1.1zM529 570.1c0 .5.5.7 1 .4.6-.3 1-.8 1-1.1 0-.2-.4-.4-1-.4-.5 0-1 .5-1 1.1zM545 570.1c0 .5.5.7 1 .4.6-.3 1-.8 1-1.1 0-.2-.4-.4-1-.4-.5 0-1 .5-1 1.1zM561 570.1c0 .5.5.7 1 .4.6-.3 1-.8 1-1.1 0-.2-.4-.4-1-.4-.5 0-1 .5-1 1.1zM589 570.1c0 .5.5.7 1 .4.6-.3 1-.8 1-1.1 0-.2-.4-.4-1-.4-.5 0-1 .5-1 1.1zM610.7 572.1c.7.7 1.5 1 1.8.7.3-.3-.2-.9-1.2-1.2-1.4-.6-1.5-.5-.6.5zM638.6 572.2c.3.4.9.8 1.5.8.5 0 .9-.4.9-.8 0-.5-.7-.9-1.5-.9s-1.2.4-.9.9zM336 912c-.9.6-1 1-.3 1 .6 0 1.5-.5 1.8-1 .8-1.2.4-1.2-1.5 0zM341.5 912.9c-.3.5-.2 1.2.3 1.5.5.3.9-.1.9-.9 0-1.7-.3-1.9-1.2-.6zM319.9 914.7c-1.3 1.6-1.2 1.7.4.4 1.6-1.3 2.1-2.1 1.3-2.1-.2 0-1 .8-1.7 1.7zM393.6 914.2c.3.4 1.1.5 1.9.1 2.1-.7 1.9-1.2-.4-1-1.1 0-1.8.5-1.5.9zM415 913.9c0 .6.4 1.2.8 1.5.5.3.9-.1.9-.9s-.4-1.5-.9-1.5c-.4 0-.8.4-.8.9zM423 913.6c0 2 2.7 3.7 3.6 2.3.4-.7.3-.9-.4-.5-.6.3-1.5-.2-2.1-1.1-.6-1-1.1-1.3-1.1-.7zM347.3 915.5c0 .8.4 1.2.9.9.5-.3.6-1 .3-1.5-.9-1.3-1.2-1.1-1.2.6zM351.4 915.4c.1.8.5 1.8.8 2.2.4.3.5-.1.4-1-.1-.8-.5-1.8-.8-2.2-.4-.3-.5.1-.4 1zM281.3 917c.1 2.1 1 1.8 1.3-.5.1-.8-.2-1.5-.6-1.5-.5 0-.8.9-.7 2zM285.7 916.5c-.4.8-.3 1.6.1 1.9.4.3.9-.4.9-1.5.2-2.3-.3-2.5-1-.4zM299 915.4c0 .2.7.7 1.6 1 .8.3 1.2.2.9-.4-.6-1-2.5-1.4-2.5-.6zM332.6 916.2c.3.5 1 .6 1.5.3 1.3-.9 1.1-1.2-.6-1.2-.8 0-1.2.4-.9.9zM399 916.2c0 .4.4.8.9.8.6 0 1.2-.4 1.5-.8.3-.5-.1-.9-.9-.9s-1.5.4-1.5.9zM553.5 916c-.3.5-.1 1 .4 1 .6 0 1.1-.5 1.1-1 0-.6-.2-1-.4-1-.3 0-.8.4-1.1 1zM313 917.4c0 .2.7.7 1.6 1 .8.3 1.2.2.9-.4-.6-1-2.5-1.4-2.5-.6zM295 918.4c0 .2.8 1 1.8 1.7 1.5 1.3 1.6 1.2.3-.4s-2.1-2.1-2.1-1.3zM459.6 919.3c.3 1 .9 1.5 1.2 1.2.3-.3 0-1.1-.7-1.8-1-.9-1.1-.8-.5.6zM548.6 919.8c-.3.5.1.9.9.9s1.2-.4.9-.9c-.3-.4-.7-.8-.9-.8-.2 0-.6.4-.9.8zM163 922.1c0 .5.5.7 1 .4.6-.3 1-.8 1-1.1 0-.2-.4-.4-1-.4-.5 0-1 .5-1 1.1zM269 922c0 .5.5 1 1.1 1 .5 0 .7-.5.4-1-.3-.6-.8-1-1.1-1-.2 0-.4.4-.4 1zM445.5 921.9c-.3.5-.2 1.2.3 1.5.5.3.9-.1.9-.9 0-1.7-.3-1.9-1.2-.6zM453 922c0 .5.5 1 1.1 1 .5 0 .7-.5.4-1-.3-.6-.8-1-1.1-1-.2 0-.4.4-.4 1zM259 922.4c0 .2.8 1 1.8 1.7 1.5 1.3 1.6 1.2.3-.4s-2.1-2.1-2.1-1.3zM481.5 923.1c-.4.6-.5 1.2-.2 1.5.2.3.7-.2 1-1.1.7-1.7.1-2-.8-.4zM487.3 923.4c0 1.5 2.2 1.5 3.4 0 .4-.5.4-.6-.1-.2-.5.4-1.4.3-2.1-.2-.8-.7-1.2-.5-1.2.4zM173.6 924.7c-.6 1.4-.5 1.5.5.6.7-.7 1-1.5.7-1.8-.3-.3-.9.2-1.2 1.2zM221.5 924c-.4.6-.1.9.7.8.7-.2 1.2.3 1 1-.1.8.2 1.1.8.7.8-.5.7-1.1-.1-2.1-1.4-1.7-1.6-1.7-2.4-.4zM463.5 924c.3.5.8 1 1.1 1 .2 0 .4-.5.4-1 0-.6-.5-1-1.1-1-.5 0-.7.4-.4 1zM491.9 924.7c-1.3 1.6-1.2 1.7.4.4 1.6-1.3 2.1-2.1 1.3-2.1-.2 0-1 .8-1.7 1.7zM531.3 924.5c0 .8.4 1.2.9.9.5-.3.6-1 .3-1.5-.9-1.3-1.2-1.1-1.2.6zM215.6 925.8c-.3.5.1.9.9.9s1.2-.4.9-.9c-.3-.4-.7-.8-.9-.8-.2 0-.6.4-.9.8zM229 926.1c0 .5.5.7 1 .4.6-.3 1-.8 1-1.1 0-.2-.4-.4-1-.4-.5 0-1 .5-1 1.1zM240.6 925.8c-.3.5.1.9.9.9s1.2-.4.9-.9c-.3-.4-.7-.8-.9-.8-.2 0-.6.4-.9.8zM494.5 928c-.3.6.1.7.9.4 1.8-.7 2.1-1.4.7-1.4-.6 0-1.3.4-1.6 1zM530.6 928.2c.3.5 1 .6 1.5.3 1.3-.9 1.1-1.2-.6-1.2-.8 0-1.2.4-.9.9zM183.5 930c.3.5.8 1 1.1 1 .2 0 .4-.5.4-1 0-.6-.5-1-1.1-1-.5 0-.7.4-.4 1zM197.5 930c-.3.5-.1 1 .4 1 .6 0 1.1-.5 1.1-1 0-.6-.2-1-.4-1-.3 0-.8.4-1.1 1zM201 930c0 .5.5 1 1.1 1 .5 0 .7-.5.4-1-.3-.6-.8-1-1.1-1-.2 0-.4.4-.4 1zM209.3 930.5c0 .8.4 1.2.9.9.5-.3.6-1 .3-1.5-.9-1.3-1.2-1.1-1.2.6zM217.3 930.5c0 .8.4 1.2.9.9.5-.3.6-1 .3-1.5-.9-1.3-1.2-1.1-1.2.6zM506.6 929.8c-.3.5.1.9.9.9s1.2-.4.9-.9c-.3-.4-.7-.8-.9-.8-.2 0-.6.4-.9.8zM512 930c-.8.5-1 1-.5 1 .6 0 1.7-.5 2.5-1s1.1-1 .5-1c-.5 0-1.7.5-2.5 1zM243 932.1c0 .5.5.7 1 .4.6-.3 1-.8 1-1.1 0-.2-.4-.4-1-.4-.5 0-1 .5-1 1.1z"/></svg>